<svg width="708" height="708" viewBox="0 0 708 708" fill="none" xmlns="http://www.w3.org/2000/svg">
<circle cx="354" cy="354" r="354" fill="#31BDDC"/>
<rect x="256.614" y="98" width="26.7882" height="512.5" rx="13.3941" fill="black"/>
<rect x="424.393" y="98" width="26.7882" height="512.5" rx="13.3941" fill="black"/>
<rect x="98" y="284.108" width="26.7882" height="512.5" rx="13.3941" transform="rotate(-90 98 284.108)" fill="black"/>
<rect x="98" y="451.886" width="26.7882" height="512.5" rx="13.3941" transform="rotate(-90 98 451.886)" fill="black"/>
<rect x="329.136" y="288.337" width="6.8905" height="131.826" rx="3.44525" fill="white"/>
<rect x="372.292" y="288.337" width="6.8905" height="131.826" rx="3.44525" fill="white"/>
<rect x="288.337" y="336.208" width="6.8905" height="131.826" rx="3.44525" transform="rotate(-90 288.337 336.208)" fill="white"/>
<rect x="288.337" y="379.364" width="6.8905" height="131.826" rx="3.44525" transform="rotate(-90 288.337 379.364)" fill="white"/>
<rect x="150.078" y="109.279" width="6.8905" height="131.826" rx="3.44525" fill="white"/>
<rect x="193.235" y="109.279" width="6.8905" height="131.826" rx="3.44525" fill="white"/>
<rect x="109.279" y="157.15" width="6.8905" height="131.826" rx="3.44525" transform="rotate(-90 109.279 157.15)" fill="white"/>
<rect x="109.279" y="200.306" width="6.8905" height="131.826" rx="3.44525" transform="rotate(-90 109.279 200.306)" fill="white"/>
<rect x="150.078" y="287.632" width="6.8905" height="131.826" rx="3.44525" fill="white"/>
<rect x="193.235" y="287.632" width="6.8905" height="131.826" rx="3.44525" fill="white"/>
<rect x="109.279" y="335.503" width="6.8905" height="131.826" rx="3.44525" transform="rotate(-90 109.279 335.503)" fill="white"/>
<rect x="109.279" y="378.659" width="6.8905" height="131.826" rx="3.44525" transform="rotate(-90 109.279 378.659)" fill="white"/>
<rect x="150.078" y="465.985" width="6.8905" height="131.826" rx="3.44525" fill="white"/>
<rect x="193.235" y="465.985" width="6.8905" height="131.826" rx="3.44525" fill="white"/>
<rect x="109.279" y="513.856" width="6.8905" height="131.826" rx="3.44525" transform="rotate(-90 109.279 513.856)" fill="white"/>
<rect x="109.279" y="557.012" width="6.8905" height="131.826" rx="3.44525" transform="rotate(-90 109.279 557.012)" fill="white"/>
<rect x="329.136" y="465.985" width="6.8905" height="131.826" rx="3.44525" fill="white"/>
<rect x="372.292" y="465.985" width="6.8905" height="131.826" rx="3.44525" fill="white"/>
<rect x="288.337" y="513.856" width="6.8905" height="131.826" rx="3.44525" transform="rotate(-90 288.337 513.856)" fill="white"/>
<rect x="288.337" y="557.013" width="6.8905" height="131.826" rx="3.44525" transform="rotate(-90 288.337 557.013)" fill="white"/>
<rect x="502.554" y="465.985" width="6.8905" height="131.826" rx="3.44525" fill="white"/>
<rect x="545.711" y="465.985" width="6.8905" height="131.826" rx="3.44525" fill="white"/>
<rect x="461.755" y="513.856" width="6.8905" height="131.826" rx="3.44525" transform="rotate(-90 461.755 513.856)" fill="white"/>
<rect x="461.755" y="557.012" width="6.8905" height="131.826" rx="3.44525" transform="rotate(-90 461.755 557.012)" fill="white"/>
<rect x="502.554" y="109.984" width="6.8905" height="131.826" rx="3.44525" fill="white"/>
<rect x="545.711" y="109.984" width="6.8905" height="131.826" rx="3.44525" fill="white"/>
<rect x="461.755" y="157.855" width="6.8905" height="131.826" rx="3.44525" transform="rotate(-90 461.755 157.855)" fill="white"/>
<rect x="461.755" y="201.012" width="6.8905" height="131.826" rx="3.44525" transform="rotate(-90 461.755 201.012)" fill="white"/>
<rect x="329.136" y="109.984" width="6.8905" height="131.826" rx="3.44525" fill="white"/>
<rect x="372.292" y="109.984" width="6.8905" height="131.826" rx="3.44525" fill="white"/>
<rect x="288.337" y="157.855" width="6.8905" height="131.826" rx="3.44525" transform="rotate(-90 288.337 157.855)" fill="white"/>
<rect x="288.337" y="201.011" width="6.8905" height="131.826" rx="3.44525" transform="rotate(-90 288.337 201.011)" fill="white"/>
<rect x="502.554" y="288.337" width="6.8905" height="131.826" rx="3.44525" fill="white"/>
<rect x="545.711" y="288.337" width="6.8905" height="131.826" rx="3.44525" fill="white"/>
<rect x="461.755" y="336.208" width="6.8905" height="131.826" rx="3.44525" transform="rotate(-90 461.755 336.208)" fill="white"/>
<rect x="461.755" y="379.364" width="6.8905" height="131.826" rx="3.44525" transform="rotate(-90 461.755 379.364)" fill="white"/>
</svg>
