<svg width="559" height="530" viewBox="0 0 559 530" fill="none" xmlns="http://www.w3.org/2000/svg">
<rect x="58.842" width="411.895" height="29.4211" fill="#CE7C35"/>
<rect x="58.842" y="500.158" width="411.895" height="29.4211" fill="#CE7C35"/>
<rect x="500.158" y="58.8421" width="29.4211" height="411.895" fill="#CE7C35"/>
<rect y="58.8421" width="29.4211" height="411.895" fill="#CE7C35"/>
<rect x="29.421" y="29.421" width="29.4211" height="29.4211" fill="#CE7C35"/>
<rect x="470.737" y="29.421" width="29.4211" height="29.4211" fill="#CE7C35"/>
<rect x="470.737" y="470.737" width="29.4211" height="29.4211" fill="#CE7C35"/>
<rect x="29.421" y="470.737" width="29.4211" height="29.4211" fill="#CE7C35"/>
<rect x="529.579" y="58.8421" width="29.4211" height="411.895" fill="#E2A93F"/>
<rect x="500.158" y="29.421" width="29.4211" height="29.4211" fill="#E2A93F"/>
<rect x="470.737" width="29.4211" height="29.4211" fill="#E2A93F"/>
<rect x="500.158" y="470.737" width="29.4211" height="29.4211" fill="#E2A93F"/>
<rect x="470.737" y="500.158" width="29.4211" height="29.4211" fill="#E2A93F"/>
<rect x="29.421" y="58.8421" width="470.737" height="411.895" fill="#F7D046"/>
<rect x="58.842" y="29.421" width="411.895" height="470.737" fill="#F7D046"/>
<rect x="353.053" y="353.053" width="117.684" height="117.684" fill="#CE7C35"/>
<rect x="382.474" y="382.474" width="58.8421" height="58.8421" fill="#E2A93F"/>
<rect x="411.895" y="411.895" width="29.4211" height="29.4211" fill="#F7D046"/>
<rect x="205.947" y="353.053" width="117.684" height="117.684" fill="#CE7C35"/>
<rect x="235.368" y="382.474" width="58.8421" height="58.8421" fill="#E2A93F"/>
<rect x="264.789" y="411.895" width="29.4211" height="29.4211" fill="#F7D046"/>
<rect x="58.842" y="353.053" width="117.684" height="117.684" fill="#CE7C35"/>
<rect x="88.2629" y="382.474" width="58.8421" height="58.8421" fill="#E2A93F"/>
<rect x="117.684" y="411.895" width="29.4211" height="29.4211" fill="#F7D046"/>
<rect x="353.053" y="205.947" width="117.684" height="117.684" fill="#CE7C35"/>
<rect x="382.474" y="235.368" width="58.8421" height="58.8421" fill="#E2A93F"/>
<rect x="411.895" y="264.789" width="29.4211" height="29.4211" fill="#F7D046"/>
<rect x="205.947" y="205.947" width="117.684" height="117.684" fill="#CE7C35"/>
<rect x="235.368" y="235.368" width="58.8421" height="58.8421" fill="#E2A93F"/>
<rect x="264.789" y="264.789" width="29.4211" height="29.4211" fill="#F7D046"/>
<rect x="58.842" y="205.947" width="117.684" height="117.684" fill="#CE7C35"/>
<rect x="88.2629" y="235.368" width="58.8421" height="58.8421" fill="#E2A93F"/>
<rect x="117.684" y="264.789" width="29.4211" height="29.4211" fill="#F7D046"/>
<rect x="353.053" y="58.8421" width="117.684" height="117.684" fill="#CE7C35"/>
<rect x="382.474" y="88.2632" width="58.8421" height="58.8421" fill="#E2A93F"/>
<rect x="411.895" y="117.684" width="29.4211" height="29.4211" fill="#F7D046"/>
<rect x="205.947" y="58.8421" width="117.684" height="117.684" fill="#CE7C35"/>
<rect x="235.368" y="88.2632" width="58.8421" height="58.8421" fill="#E2A93F"/>
<rect x="264.789" y="117.684" width="29.4211" height="29.4211" fill="#F7D046"/>
<rect x="58.842" y="58.8421" width="117.684" height="117.684" fill="#CE7C35"/>
<rect x="88.2629" y="88.2632" width="58.8421" height="58.8421" fill="#E2A93F"/>
<rect x="117.684" y="117.684" width="29.4211" height="29.4211" fill="#F7D046"/>
<rect x="147.105" y="294.21" width="235.368" height="88.2631" fill="#763E30"/>
<rect x="176.526" y="382.474" width="176.526" height="29.4211" fill="#763E30"/>
<rect x="205.947" y="411.895" width="117.684" height="29.4211" fill="#763E30"/>
<rect x="176.526" y="323.632" width="176.526" height="58.8421" fill="#DF809E"/>
<rect x="205.947" y="382.474" width="117.684" height="29.4211" fill="#DF809E"/>
<rect x="323.632" y="205.947" width="88.2631" height="58.8421" fill="#763E30"/>
<rect x="353.053" y="176.526" width="58.8421" height="29.4211" fill="#763E30"/>
<rect x="117.684" y="205.947" width="88.2631" height="58.8421" fill="#763E30"/>
<rect x="147.105" y="176.526" width="58.8421" height="29.4211" fill="#763E30"/>
</svg>