<svg width="100" height="100" viewBox="0 0 100 100" fill="none" xmlns="http://www.w3.org/2000/svg">
<path d="M92.8571 0.125H7.12054C3.19196 0.125 0 3.35352 0 7.3168V92.6832C0 96.6465 3.19196 99.875 7.12054 99.875H92.8571C96.7857 99.875 100 96.6465 100 92.6832V7.3168C100 3.35352 96.7857 0.125 92.8571 0.125ZM30.2232 85.625H15.4018V38.0211H30.2455V85.625H30.2232ZM22.8125 31.5195C18.058 31.5195 14.2188 27.6676 14.2188 22.9473C14.2188 18.227 18.058 14.375 22.8125 14.375C27.5446 14.375 31.4062 18.227 31.4062 22.9473C31.4062 27.6898 27.567 31.5195 22.8125 31.5195V31.5195ZM85.7812 85.625H70.9598V62.4688C70.9598 56.9469 70.8482 49.8441 63.2589 49.8441C55.5357 49.8441 54.3527 55.8559 54.3527 62.068V85.625H39.5313V38.0211H53.75V44.5227H53.9509C55.9375 40.782 60.7813 36.841 67.9911 36.841C82.9911 36.841 85.7812 46.7047 85.7812 59.5297V85.625V85.625Z" fill="#DBDBDB"/>
</svg>