<svg width="75" height="57" viewBox="0 0 75 57" fill="none" xmlns="http://www.w3.org/2000/svg">
<path d="M37.1946 27.8905C37.3743 28.0287 37.6246 28.0287 37.8043 27.8905L72.8968 0.896311C73.2752 0.605219 73.0694 0 72.5919 0H2.40707C1.92965 0 1.7238 0.605221 2.10221 0.896311L37.1946 27.8905Z" fill="#DBDBDB"/>
<path d="M0 4.77057C0 4.3549 0.477732 4.12073 0.806286 4.37536L37.1937 32.5756C37.374 32.7153 37.626 32.7153 37.8063 32.5756L74.1937 4.37573C74.5223 4.12111 75 4.35527 75 4.77095V53.2505C75 54.9073 73.6569 56.2505 72 56.2505H3C1.34315 56.2505 0 54.9073 0 53.2505V4.77057Z" fill="#DBDBDB"/>
<path d="M0 4.77057C0 4.3549 0.477732 4.12073 0.806286 4.37536L37.1937 32.5756C37.374 32.7153 37.626 32.7153 37.8063 32.5756L74.1937 4.37573C74.5223 4.12111 75 4.35527 75 4.77095V53.2505C75 54.9073 73.6569 56.2505 72 56.2505H3C1.34315 56.2505 0 54.9073 0 53.2505V4.77057Z" fill="#DBDBDB"/>
</svg>
