<svg width="90" height="74" viewBox="0 0 90 74" fill="none" xmlns="http://www.w3.org/2000/svg">
<path d="M34.2581 0H5.80645C2.59964 0 0 2.58835 0 5.78125V15.0312C0 18.2241 2.59964 20.8125 5.80645 20.8125H34.2581C37.4649 20.8125 40.0645 18.2241 40.0645 15.0312V5.78125C40.0645 2.58835 37.4649 0 34.2581 0Z" fill="#0A8ED8"/>
<path d="M84.1935 6.35938H36.5806C33.3738 6.35938 30.7742 8.94773 30.7742 12.1406V21.3906C30.7742 24.5835 33.3738 27.1719 36.5806 27.1719H84.1935C87.4003 27.1719 90 24.5835 90 21.3906V12.1406C90 8.94773 87.4003 6.35938 84.1935 6.35938Z" fill="#0A8ED8"/>
<path d="M87.0968 8.67188H2.90323C1.29982 8.67188 0 9.96605 0 11.5625V19.0781C0 20.6746 1.29982 21.9688 2.90323 21.9688H87.0968C88.7002 21.9688 90 20.6746 90 19.0781V11.5625C90 9.96605 88.7002 8.67188 87.0968 8.67188Z" fill="#097DBE"/>
<path d="M0 13.2969C0 12.339 0.779894 11.5625 1.74194 11.5625H88.2581C89.2202 11.5625 90 12.339 90 13.2969V68.2188C90 71.4117 87.4004 74 84.1935 74H5.80645C2.59964 74 0 71.4117 0 68.2188V13.2969Z" fill="#0A8ED8"/>
</svg>