<svg width="71" height="69" viewBox="0 0 71 69" fill="none" xmlns="http://www.w3.org/2000/svg">
<path d="M23.7478 55.5587C23.7478 55.8441 23.4185 56.0723 23.0034 56.0723C22.531 56.1151 22.2018 55.8869 22.2018 55.5587C22.2018 55.2733 22.531 55.0451 22.9462 55.0451C23.3756 55.0023 23.7478 55.2305 23.7478 55.5587ZM19.296 54.9166C19.1958 55.202 19.4821 55.5302 19.9115 55.6158C20.2837 55.7584 20.7131 55.6158 20.799 55.3304C20.8849 55.0451 20.6129 54.7169 20.1835 54.5885C19.8113 54.4886 19.3962 54.6313 19.296 54.9166ZM25.623 54.6741C25.2079 54.774 24.9216 55.0451 24.9645 55.3732C25.0075 55.6586 25.3796 55.8441 25.8091 55.7442C26.2242 55.6443 26.5105 55.3732 26.4675 55.0879C26.4246 54.8168 26.0381 54.6313 25.623 54.6741ZM35.0419 0C15.1877 0 0 15.024 0 34.8134C0 50.6363 9.99153 64.1764 24.2631 68.9419C26.0954 69.27 26.7395 68.1429 26.7395 67.2155C26.7395 66.3309 26.6966 61.4513 26.6966 58.4551C26.6966 58.4551 16.6764 60.5952 14.5722 54.2033C14.5722 54.2033 12.9403 50.0513 10.5927 48.9813C10.5927 48.9813 7.31472 46.7412 10.8218 46.784C10.8218 46.784 14.3861 47.0694 16.3472 50.4651C19.4821 55.9725 24.7355 54.3887 26.7825 53.4471C27.1117 51.1642 28.0421 49.5805 29.0728 48.6388C21.071 47.7542 12.9976 46.5985 12.9976 32.8729C12.9976 28.9493 14.0855 26.9804 16.3758 24.4692C16.0036 23.5418 14.7869 19.7181 16.748 14.7814C19.7397 13.854 26.625 18.6337 26.625 18.6337C29.4879 17.8347 32.5655 17.4209 35.6145 17.4209C38.6635 17.4209 41.7411 17.8347 44.604 18.6337C44.604 18.6337 51.4893 13.8397 54.481 14.7814C56.4421 19.7323 55.2254 23.5418 54.8532 24.4692C57.1435 26.9946 58.5464 28.9636 58.5464 32.8729C58.5464 46.6413 50.1151 47.74 42.1133 48.6388C43.4302 49.766 44.5468 51.9061 44.5468 55.2591C44.5468 60.0673 44.5038 66.017 44.5038 67.1869C44.5038 68.1143 45.1623 69.2415 46.9802 68.9133C61.2948 64.1764 71 50.6363 71 34.8134C71 15.024 54.8962 0 35.0419 0ZM13.9137 49.2095C13.7276 49.3522 13.7706 49.6804 14.0139 49.9515C14.2429 50.1798 14.5722 50.2796 14.7583 50.0941C14.9444 49.9515 14.9014 49.6233 14.6581 49.3522C14.429 49.1239 14.0998 49.0241 13.9137 49.2095ZM12.3677 48.0539C12.2675 48.2393 12.4107 48.4676 12.697 48.6103C12.926 48.753 13.2123 48.7102 13.3125 48.5104C13.4127 48.3249 13.2696 48.0967 12.9833 47.954C12.697 47.8684 12.4679 47.9112 12.3677 48.0539ZM17.0056 53.1332C16.7766 53.3187 16.8625 53.7467 17.1917 54.0178C17.521 54.3459 17.9361 54.3887 18.1222 54.1605C18.3083 53.975 18.2224 53.5469 17.9361 53.2759C17.6212 52.9477 17.1917 52.9049 17.0056 53.1332ZM15.3738 51.0358C15.1448 51.1785 15.1448 51.5495 15.3738 51.8776C15.6028 52.2058 15.9893 52.3485 16.1754 52.2058C16.4044 52.0203 16.4044 51.6493 16.1754 51.3212C15.975 50.993 15.6028 50.8503 15.3738 51.0358Z" fill="#DBDBDB"/>
</svg>