<svg width="62" height="62" viewBox="0 0 62 62" fill="none" xmlns="http://www.w3.org/2000/svg">
<rect x="0.699219" y="0.730469" width="60.3938" height="60.8397" rx="11" fill="white"/>
<path d="M23.478 44.4723C23.478 44.6528 23.2702 44.7972 23.0082 44.7972C22.7101 44.8243 22.5023 44.6799 22.5023 44.4723C22.5023 44.2918 22.7101 44.1474 22.9721 44.1474C23.2431 44.1203 23.478 44.2647 23.478 44.4723ZM20.6681 44.0661C20.6049 44.2466 20.7856 44.4542 21.0566 44.5084C21.2915 44.5987 21.5626 44.5084 21.6168 44.3279C21.671 44.1474 21.4994 43.9398 21.2283 43.8585C20.9934 43.7953 20.7314 43.8856 20.6681 44.0661ZM24.6616 43.9127C24.3996 43.9759 24.2189 44.1474 24.246 44.355C24.2731 44.5355 24.5081 44.6528 24.7791 44.5896C25.0411 44.5265 25.2218 44.355 25.1947 44.1744C25.1676 44.0029 24.9237 43.8856 24.6616 43.9127ZM30.6068 9.3252C18.075 9.3252 8.48877 18.8295 8.48877 31.3485C8.48877 41.3583 14.7953 49.924 23.8033 52.9387C24.9598 53.1462 25.3664 52.4332 25.3664 51.8465C25.3664 51.2869 25.3393 48.2 25.3393 46.3046C25.3393 46.3046 19.0147 47.6585 17.6865 43.6148C17.6865 43.6148 16.6565 40.9883 15.1748 40.3113C15.1748 40.3113 13.1057 38.8943 15.3193 38.9213C15.3193 38.9213 17.5691 39.1019 18.8069 41.25C20.7856 44.7341 24.1015 43.7322 25.3935 43.1365C25.6013 41.6923 26.1886 40.6904 26.8391 40.0947C21.7885 39.5351 16.6927 38.804 16.6927 30.121C16.6927 27.6389 17.3793 26.3933 18.825 24.8047C18.59 24.218 17.8221 21.7991 19.0599 18.6761C20.9482 18.0894 25.2941 21.1131 25.2941 21.1131C27.1011 20.6076 29.0437 20.3459 30.9682 20.3459C32.8927 20.3459 34.8352 20.6076 36.6422 21.1131C36.6422 21.1131 40.9881 18.0804 42.8765 18.6761C44.1143 21.8081 43.3463 24.218 43.1114 24.8047C44.557 26.4023 45.4424 27.6479 45.4424 30.121C45.4424 38.8311 40.1208 39.5261 35.0701 40.0947C35.9014 40.8078 36.6061 42.1616 36.6061 44.2827C36.6061 47.3245 36.579 51.0883 36.579 51.8285C36.579 52.4151 36.9946 53.1282 38.1421 52.9206C47.1772 49.924 53.303 41.3583 53.303 31.3485C53.303 18.8295 43.1385 9.3252 30.6068 9.3252ZM17.2709 40.4557C17.1535 40.546 17.1806 40.7536 17.3342 40.9251C17.4787 41.0695 17.6865 41.1327 17.804 41.0154C17.9214 40.9251 17.8943 40.7175 17.7407 40.546C17.5962 40.4016 17.3884 40.3384 17.2709 40.4557ZM16.2951 39.7246C16.2319 39.842 16.3222 39.9864 16.5029 40.0767C16.6475 40.1669 16.8282 40.1398 16.8914 40.0135C16.9547 39.8961 16.8643 39.7517 16.6836 39.6615C16.5029 39.6073 16.3584 39.6344 16.2951 39.7246ZM19.2225 42.9379C19.0779 43.0552 19.1322 43.326 19.34 43.4975C19.5478 43.7051 19.8098 43.7322 19.9272 43.5878C20.0447 43.4704 19.9905 43.1996 19.8098 43.0281C19.611 42.8205 19.34 42.7935 19.2225 42.9379ZM18.1925 41.6111C18.0479 41.7013 18.0479 41.936 18.1925 42.1436C18.3371 42.3512 18.581 42.4415 18.6985 42.3512C18.843 42.2339 18.843 41.9992 18.6985 41.7916C18.572 41.584 18.3371 41.4937 18.1925 41.6111Z" fill="black"/>
</svg>