<svg width="69" height="69" viewBox="0 0 69 69" fill="none" xmlns="http://www.w3.org/2000/svg">
<rect x="0.500977" y="0.335938" width="67.5547" height="68.0534" rx="11" fill="white"/>
<path d="M55.3014 10.186H13.2439C11.3168 10.186 9.75098 11.751 9.75098 13.6722V55.0533C9.75098 56.9745 11.3168 58.5395 13.2439 58.5395H55.3014C57.2285 58.5395 58.8052 56.9745 58.8052 55.0533V13.6722C58.8052 11.751 57.2285 10.186 55.3014 10.186ZM24.5768 51.6319H17.3062V28.556H24.5877V51.6319H24.5768ZM20.9415 25.4044C18.6092 25.4044 16.7259 23.5372 16.7259 21.2491C16.7259 18.9609 18.6092 17.0937 20.9415 17.0937C23.2628 17.0937 25.1571 18.9609 25.1571 21.2491C25.1571 23.548 23.2737 25.4044 20.9415 25.4044ZM51.8303 51.6319H44.5598V40.407C44.5598 37.7303 44.5051 34.2872 40.7822 34.2872C36.9936 34.2872 36.4133 37.2014 36.4133 40.2127V51.6319H29.1427V28.556H36.1176V31.7077H36.2162C37.1907 29.8944 39.5668 27.984 43.1035 27.984C50.4616 27.984 51.8303 32.7654 51.8303 38.9823V51.6319Z" fill="#0274B3"/>
</svg>