<svg width="100" height="80" viewBox="0 0 100 80" fill="none" xmlns="http://www.w3.org/2000/svg">
<path d="M85.7126 4.375H14.2874C9.08906 4.375 4.875 8.59102 4.875 13.7918V66.2083C4.875 71.409 9.08906 75.625 14.2874 75.625H85.7126C90.9109 75.625 95.125 71.409 95.125 66.2083V13.7918C95.125 8.59102 90.9109 4.375 85.7126 4.375Z" fill="#242A3E" stroke="#242A3E" stroke-width="8"/>
<path d="M85.5558 4.375H14.4442C9.15927 4.375 4.875 8.59102 4.875 13.7918V66.2082C4.875 71.409 9.15927 75.625 14.4442 75.625H85.5558C90.8407 75.625 95.125 71.409 95.125 66.2082V13.7918C95.125 8.59102 90.8407 4.375 85.5558 4.375Z" fill="#DBDBDB"/>
<path d="M85.625 13.875H14.375V66.125H85.625V13.875Z" fill="#242A3E"/>
<path d="M12 14.2898L45.25 47.1252C47.9214 49.9726 49.7253 49.948 52.485 47.2036L88.1836 13.4487" stroke="#DBDBDB" stroke-width="4" stroke-linecap="round" stroke-linejoin="round"/>
</svg>