<svg width="61" height="61" viewBox="0 0 61 61" fill="none" xmlns="http://www.w3.org/2000/svg">
<rect width="60.3938" height="60.8397" rx="11" fill="#45B2D5"/>
<path d="M29.6949 30.2655C29.8746 30.4037 30.1249 30.4037 30.3046 30.2655L50.2846 14.8963C50.663 14.6052 50.4572 14 49.9797 14H10.0199C9.54244 14 9.33659 14.6052 9.71501 14.8963L29.6949 30.2655Z" fill="white"/>
<path d="M8 17.2203C8 16.8046 8.47773 16.5704 8.80629 16.8251L29.6937 33.0128C29.874 33.1525 30.126 33.1525 30.3063 33.0128L51.1937 16.8253C51.5223 16.5707 52 16.8048 52 17.2205V44.0002C52 45.6571 50.6569 47.0002 49 47.0002H11C9.34315 47.0002 8 45.6571 8 44.0002V17.2203Z" fill="white"/>
<path d="M8 17.2203C8 16.8046 8.47773 16.5704 8.80629 16.8251L29.6937 33.0128C29.874 33.1525 30.126 33.1525 30.3063 33.0128L51.1937 16.8253C51.5223 16.5707 52 16.8048 52 17.2205V44.0002C52 45.6571 50.6569 47.0002 49 47.0002H11C9.34315 47.0002 8 45.6571 8 44.0002V17.2203Z" fill="white"/>
</svg>