<svg width="377" height="377" viewBox="0 0 377 377" fill="none" xmlns="http://www.w3.org/2000/svg">
<rect width="377" height="377" rx="21.6" fill="#EBC335"/>
<path d="M67 142C67 142 131.999 91 154.249 91C176.5 91 198.654 142 225.577 142C252.5 142 302 91 302 91" stroke="black" stroke-width="17"/>
<path d="M67 286C67 286 131.999 235 154.249 235C176.5 235 198.654 286 225.577 286C252.5 286 302 235 302 235" stroke="black" stroke-width="17"/>
<path d="M67 214C67 214 131.999 163 154.249 163C176.5 163 198.654 214 225.577 214C252.5 214 302 163 302 163" stroke="black" stroke-width="17"/>
</svg>
