<svg width="208" height="208" viewBox="0 0 208 208" fill="none" xmlns="http://www.w3.org/2000/svg">
<rect width="208" height="208" rx="21.6" fill="#FFAAAA"/>
<g clip-path="url(#clip0_103_15)">
<path d="M174.254 25.6287H33.7456C24.3394 25.6287 16.7142 33.1242 16.7142 42.3703V130.908C16.7142 140.154 24.3394 147.65 33.7456 147.65H174.254C183.66 147.65 191.286 140.154 191.286 130.908V42.3703C191.286 33.1242 183.66 25.6287 174.254 25.6287Z" fill="black"/>
<path d="M174.254 33.3557H33.7456C28.8616 33.3557 24.9023 37.2476 24.9023 42.0485V130.908C24.9023 135.709 28.8616 139.601 33.7456 139.601H174.254C179.138 139.601 183.097 135.709 183.097 130.908V42.0485C183.097 37.2476 179.138 33.3557 174.254 33.3557Z" fill="white"/>
<path d="M109.077 143.786H98.2683V161.494H109.077V143.786Z" fill="black"/>
<path d="M106.628 157.806C104.153 156.165 100.795 156.807 99.1256 159.239C97.4566 161.672 98.1095 164.974 100.584 166.614L123.023 181.492C125.498 183.133 128.856 182.491 130.525 180.059C132.194 177.626 131.542 174.325 129.067 172.684L106.628 157.806Z" fill="black"/>
<path d="M106.469 166.686C108.943 165.045 109.596 161.743 107.927 159.311C106.258 156.879 102.899 156.237 100.425 157.878L77.9856 172.756C75.5112 174.396 74.8583 177.698 76.5273 180.13C78.1963 182.563 81.5552 183.204 84.0296 181.564L106.469 166.686Z" fill="black"/>
<path d="M71.1341 56.7338L63.847 80.3407H58.8918L54.4548 65.7099C54.3684 65.4831 54.2874 65.2347 54.2118 64.9646C54.1363 64.6838 54.0607 64.3922 53.9851 64.0897C53.9096 64.3922 53.834 64.6838 53.7584 64.9646C53.6828 65.2347 53.6019 65.4831 53.5155 65.7099L49.0137 80.3407H44.0585L36.7714 56.7338H41.3703C41.8453 56.7338 42.2394 56.8418 42.5525 57.0578C42.8763 57.2739 43.0869 57.5601 43.184 57.9166L46.4227 70.2304C46.5199 70.6193 46.6171 71.0459 46.7142 71.5104C46.8114 71.9641 46.9085 72.4393 47.0057 72.9362C47.2 71.9209 47.4375 71.019 47.7182 70.2304L51.5399 57.9166C51.6371 57.6141 51.8422 57.3441 52.1553 57.1064C52.4791 56.858 52.8678 56.7338 53.3212 56.7338H54.9406C55.4156 56.7338 55.7988 56.8472 56.0903 57.074C56.3818 57.2901 56.6031 57.5709 56.7542 57.9166L60.5435 70.2304C60.8242 70.9866 61.0617 71.8453 61.2561 72.8066C61.3424 72.3205 61.4287 71.8669 61.5151 71.4456C61.6123 71.0135 61.7095 70.6085 61.8066 70.2304L65.0453 57.9166C65.1317 57.6033 65.3368 57.3279 65.6607 57.0902C65.9846 56.8526 66.3732 56.7338 66.8266 56.7338H71.1341ZM81.2389 69.9226C81.2389 69.5229 81.1849 69.134 81.077 68.756C80.9798 68.378 80.8125 68.0431 80.575 67.7514C80.3483 67.449 80.046 67.206 79.6681 67.0223C79.2903 66.8387 78.8315 66.7469 78.2917 66.7469C77.3416 66.7469 76.5967 67.0223 76.057 67.5732C75.5172 68.1133 75.1609 68.8964 74.9882 69.9226H81.2389ZM74.9234 72.839C75.0854 74.2432 75.5118 75.264 76.2027 75.9013C76.8936 76.5278 77.7843 76.841 78.8747 76.841C79.4576 76.841 79.9596 76.7708 80.3807 76.6304C80.8017 76.4899 81.1741 76.3334 81.498 76.1605C81.8326 75.9877 82.1349 75.8311 82.4049 75.6906C82.6855 75.5502 82.977 75.48 83.2793 75.48C83.6787 75.48 83.981 75.6258 84.1861 75.9175L85.6435 77.7159C85.1253 78.3101 84.5638 78.7961 83.9594 79.1742C83.3657 79.5414 82.7503 79.8331 82.1134 80.0491C81.4872 80.2543 80.8557 80.3947 80.2187 80.4704C79.5926 80.5568 78.9934 80.6 78.4212 80.6C77.2445 80.6 76.1379 80.4109 75.1016 80.0329C74.0759 79.644 73.1745 79.0716 72.3972 78.3154C71.6307 77.5593 71.0208 76.6196 70.5674 75.4962C70.1247 74.3729 69.9034 73.0658 69.9034 71.5752C69.9034 70.4519 70.0923 69.3879 70.4702 68.3833C70.8588 67.3788 71.4094 66.4985 72.1219 65.7423C72.8452 64.9862 73.7143 64.3867 74.7291 63.9439C75.7547 63.501 76.9098 63.2796 78.1945 63.2796C79.3064 63.2796 80.3213 63.4524 81.2389 63.7981C82.1673 64.1437 82.9608 64.646 83.6194 65.3049C84.2885 65.9638 84.8067 66.7739 85.1739 67.7352C85.5516 68.6858 85.7407 69.7659 85.7407 70.9757C85.7407 71.3538 85.7245 71.6616 85.6921 71.8993C85.6597 72.1369 85.6002 72.3259 85.514 72.4664C85.4278 72.6068 85.3087 72.704 85.1577 72.758C85.0172 72.812 84.8338 72.839 84.6071 72.839H74.9234ZM93.2726 75.7717C93.6508 76.1821 94.0608 76.4737 94.5033 76.6466C94.9462 76.8194 95.394 76.9058 95.8474 76.9058C96.3227 76.9058 96.7599 76.8194 97.159 76.6466C97.5587 76.463 97.8987 76.1713 98.1792 75.7717C98.4707 75.3612 98.6974 74.8265 98.8594 74.1676C99.0213 73.4979 99.1023 72.677 99.1023 71.7048C99.1023 70.8623 99.0375 70.1494 98.908 69.5661C98.7894 68.972 98.606 68.4914 98.3574 68.1241C98.1202 67.7461 97.8177 67.476 97.4505 67.314C97.0943 67.1411 96.6842 67.0547 96.2198 67.0547C95.6045 67.0547 95.0701 67.1897 94.6167 67.4598C94.1632 67.7299 93.7155 68.1241 93.2726 68.6426V75.7717ZM93.2726 65.3211C93.9203 64.7054 94.6276 64.2139 95.394 63.8467C96.1712 63.4686 97.0352 63.2796 97.9849 63.2796C98.9351 63.2796 99.7986 63.474 100.576 63.8629C101.353 64.2517 102.017 64.808 102.568 65.5317C103.118 66.2446 103.539 67.1087 103.831 68.1241C104.133 69.1395 104.284 70.2736 104.284 71.5266C104.284 72.8876 104.112 74.1244 103.766 75.237C103.421 76.3496 102.93 77.3055 102.292 78.1048C101.667 78.8933 100.916 79.509 100.042 79.9519C99.1671 80.384 98.2012 80.6 97.1429 80.6C96.6356 80.6 96.1822 80.5514 95.7826 80.4542C95.3835 80.3569 95.0163 80.2219 94.6814 80.0491C94.3471 79.8655 94.0394 79.6494 93.7584 79.401C93.4888 79.1526 93.224 78.8825 92.9649 78.5909L92.7868 79.4334C92.7006 79.779 92.5601 80.0167 92.3658 80.1463C92.1714 80.2759 91.9123 80.3407 91.5885 80.3407H88.2526V56.0857H93.2726V65.3211ZM136.337 68.5292C136.337 70.2358 136.04 71.8129 135.446 73.2603C134.863 74.6969 134.037 75.9445 132.968 77.003C131.899 78.0508 130.61 78.8717 129.098 79.4658C127.598 80.0491 125.93 80.3407 124.094 80.3407H114.929V56.7338H124.094C125.93 56.7338 127.598 57.0308 129.098 57.6249C130.61 58.219 131.899 59.0399 132.968 60.0877C134.037 61.1355 134.863 62.3831 135.446 63.8305C136.04 65.2671 136.337 66.8333 136.337 68.5292ZM130.734 68.5292C130.734 67.3626 130.583 66.3094 130.28 65.3697C129.978 64.4299 129.541 63.636 128.968 62.9879C128.407 62.329 127.716 61.8267 126.896 61.4811C126.076 61.1247 125.142 60.9464 124.094 60.9464H120.434V76.1281H124.094C125.142 76.1281 126.076 75.9553 126.896 75.6096C127.716 75.2532 128.407 74.7509 128.968 74.1028C129.541 73.4439 129.978 72.6446 130.28 71.7048C130.583 70.7651 130.734 69.7066 130.734 68.5292ZM149.239 69.9226C149.239 69.5229 149.185 69.134 149.078 68.756C148.98 68.378 148.813 68.0431 148.576 67.7514C148.349 67.449 148.046 67.206 147.669 67.0223C147.291 66.8387 146.832 66.7469 146.292 66.7469C145.342 66.7469 144.597 67.0223 144.058 67.5732C143.517 68.1133 143.161 68.8964 142.989 69.9226H149.239ZM142.924 72.839C143.086 74.2432 143.512 75.264 144.203 75.9013C144.894 76.5278 145.785 76.841 146.875 76.841C147.458 76.841 147.96 76.7708 148.381 76.6304C148.802 76.4899 149.175 76.3334 149.499 76.1605C149.833 75.9877 150.135 75.8311 150.405 75.6906C150.686 75.5502 150.977 75.48 151.28 75.48C151.679 75.48 151.981 75.6258 152.187 75.9175L153.644 77.7159C153.126 78.3101 152.564 78.7961 151.96 79.1742C151.366 79.5414 150.751 79.8331 150.114 80.0491C149.488 80.2543 148.856 80.3947 148.219 80.4704C147.593 80.5568 146.994 80.6 146.422 80.6C145.245 80.6 144.139 80.4109 143.102 80.0329C142.076 79.644 141.175 79.0716 140.398 78.3154C139.631 77.5593 139.021 76.6196 138.568 75.4962C138.125 74.3729 137.904 73.0658 137.904 71.5752C137.904 70.4519 138.093 69.3879 138.471 68.3833C138.859 67.3788 139.41 66.4985 140.122 65.7423C140.845 64.9862 141.715 64.3867 142.73 63.9439C143.755 63.501 144.91 63.2796 146.195 63.2796C147.307 63.2796 148.322 63.4524 149.239 63.7981C150.168 64.1437 150.961 64.646 151.62 65.3049C152.289 65.9638 152.807 66.7739 153.175 67.7352C153.552 68.6858 153.741 69.7659 153.741 70.9757C153.741 71.3538 153.725 71.6616 153.693 71.8993C153.66 72.1369 153.601 72.3259 153.515 72.4664C153.428 72.6068 153.309 72.704 153.158 72.758C153.018 72.812 152.834 72.839 152.608 72.839H142.924ZM171.6 63.5388L165.09 80.3407H160.524L154.014 63.5388H158.192C158.548 63.5388 158.845 63.6252 159.082 63.7981C159.33 63.9601 159.498 64.1653 159.584 64.4137L161.916 71.9479C162.121 72.5636 162.299 73.1631 162.451 73.7463C162.613 74.3296 162.753 74.9129 162.872 75.4962C163.109 74.3296 163.438 73.1469 163.859 71.9479L166.288 64.4137C166.375 64.1653 166.537 63.9601 166.774 63.7981C167.011 63.6252 167.292 63.5388 167.616 63.5388H171.6Z" fill="black"/>
<path d="M76.2964 108.152C75.6487 108.47 74.9121 108.725 74.0866 108.915C74.9121 109.106 75.6487 109.36 76.2964 109.679L81.7067 112.618C82.0496 112.783 82.2911 112.993 82.4306 113.247C82.583 113.489 82.6592 113.756 82.6592 114.049V118.152L67.2285 110.079V107.77L82.6592 99.679V103.782C82.6592 104.074 82.583 104.348 82.4306 104.602C82.2911 104.844 82.0496 105.054 81.7067 105.232L76.2964 108.152ZM102.015 121.568C101.875 121.911 101.691 122.216 101.462 122.484C101.247 122.751 100.999 122.974 100.719 123.152C100.453 123.33 100.161 123.463 99.843 123.552C99.5382 123.642 99.2334 123.686 98.9286 123.686H96.414L107.235 95.2325C107.489 94.5837 107.876 94.0875 108.397 93.744C108.918 93.4005 109.521 93.2288 110.206 93.2288H112.721L102.015 121.568ZM141.886 107.77V110.079L126.455 118.152V114.049C126.455 113.756 126.524 113.489 126.665 113.247C126.817 112.993 127.065 112.783 127.408 112.618L132.818 109.679C133.465 109.36 134.202 109.106 135.028 108.915C134.202 108.725 133.465 108.47 132.818 108.152L127.408 105.232C127.065 105.054 126.817 104.844 126.665 104.602C126.524 104.348 126.455 104.074 126.455 103.782V99.679L141.886 107.77Z" fill="black"/>
</g>
<defs>
<clipPath id="clip0_103_15">
<rect width="174.571" height="157.114" fill="white" transform="translate(16.7142 25.6287)"/>
</clipPath>
</defs>
</svg>