<svg width="347" height="347" viewBox="0 0 347 347" fill="none" xmlns="http://www.w3.org/2000/svg">
<path d="M345.379 157.582C345.853 162.809 346.18 168.083 346.18 173.438C346.18 168.083 345.853 162.813 345.379 157.582Z" fill="#DBDBDB"/>
<path d="M89.1964 156.669C89.1964 156.669 41.1741 333.607 233.652 335.147C294.043 312.666 338.543 257.549 345.287 191.099C345.753 186.503 345.891 181.814 345.995 177.118C346.014 175.882 346.18 174.681 346.18 173.438C346.18 168.087 345.853 162.809 345.379 157.582C294.528 357.766 69.564 279.356 89.1964 156.669Z" fill="#DBDBDB"/>
<path d="M188.721 90.9932C188.721 90.9932 9.51212 40.9461 12.2683 236.353C21.4547 259.967 35.711 281.277 54.0314 298.78C54.8013 299.508 55.5981 300.197 56.3757 300.913C61.5578 305.691 67.0265 310.148 72.7514 314.259C73.6406 314.894 74.476 315.595 75.369 316.215C81.4248 320.356 87.7393 324.105 94.2738 327.44C96.1716 328.418 98.1233 329.311 100.048 330.223C105.671 332.871 111.435 335.209 117.313 337.229C118.757 337.722 120.135 338.338 121.597 338.796C128.644 340.95 135.823 342.648 143.089 343.877C145.287 344.262 147.508 344.585 149.733 344.893C157.271 345.982 164.872 346.572 172.488 346.66C172.78 346.66 173.061 346.706 173.354 346.706C179.097 346.706 184.767 346.398 190.361 345.848C-10.7131 297.895 65.7145 73.0546 188.721 90.9932Z" fill="#DBDBDB"/>
<path d="M258.574 183.662C258.574 183.662 300.972 4.91504 110.122 12.8989C46.1246 38.1784 0.820007 100.448 0.820007 173.422C0.87952 181.281 1.47242 189.126 2.59462 196.904C42.7601 -5.32458 271.585 60.1705 258.574 183.662Z" fill="#DBDBDB"/>
<path d="M166.937 260.582C166.937 260.582 346.457 284.018 335.221 113.336C310.788 47.6366 247.703 0.742188 173.5 0.742188C162.993 0.782792 152.511 1.77878 142.184 3.71784C342.219 28.2737 290.228 262.33 166.937 260.582Z" fill="#DBDBDB"/>
<path d="M223.335 173.441C223.335 183.009 220.498 192.361 215.183 200.315C209.867 208.27 202.312 214.469 193.473 218.13C184.634 221.79 174.908 222.747 165.525 220.88C156.142 219.012 147.523 214.404 140.759 207.638C133.995 200.872 129.39 192.252 127.525 182.868C125.661 173.485 126.621 163.759 130.284 154.921C133.947 146.083 140.149 138.53 148.106 133.217C156.062 127.904 165.415 125.07 174.982 125.073C187.808 125.076 200.107 130.173 209.175 139.244C218.243 148.315 223.336 160.616 223.335 173.441V173.441Z" fill="#DBDBDB"/>
</svg>