<svg width="69" height="69" viewBox="0 0 69 69" fill="none" xmlns="http://www.w3.org/2000/svg">
<rect x="0.620117" y="0.463379" width="67.5547" height="68.0534" rx="11" fill="white"/>
<path d="M60.7354 32.5591C60.8079 33.3601 60.858 34.1683 60.858 34.9888C60.858 34.1683 60.8079 33.3607 60.7354 32.5591Z" fill="black"/>
<path d="M21.4785 32.4194C21.4785 32.4194 14.1198 59.5327 43.6144 59.7686C52.8684 56.3237 59.6874 47.8778 60.7209 37.6953C60.7923 36.991 60.8135 36.2725 60.8294 35.5529C60.8324 35.3635 60.8577 35.1795 60.8577 34.989C60.8577 34.169 60.8076 33.3603 60.735 32.5592C52.9427 63.2348 18.4701 51.2195 21.4785 32.4194Z" fill="black"/>
<path d="M36.7298 22.3555C36.7298 22.3555 9.2685 14.6865 9.69086 44.63C11.0985 48.2484 13.2831 51.5139 16.0905 54.196C16.2084 54.3075 16.3305 54.4131 16.4497 54.5228C17.2438 55.2549 18.0818 55.9379 18.9591 56.5679C19.0953 56.6653 19.2233 56.7726 19.3602 56.8676C20.2881 57.5022 21.2557 58.0767 22.2571 58.5877C22.5479 58.7375 22.847 58.8744 23.1419 59.0142C24.0036 59.4199 24.8868 59.7783 25.7875 60.0878C26.0087 60.1633 26.2199 60.2576 26.444 60.3278C27.5239 60.658 28.624 60.9181 29.7373 61.1065C30.0742 61.1655 30.4145 61.215 30.7555 61.2622C31.9105 61.429 33.0753 61.5195 34.2423 61.533C34.2871 61.533 34.3302 61.54 34.375 61.54C35.2551 61.54 36.124 61.4929 36.9811 61.4085C6.16927 54.0604 17.8808 19.6067 36.7298 22.3555Z" fill="black"/>
<path d="M47.4332 36.5558C47.4332 36.5558 53.9302 9.16526 24.6851 10.3887C14.8783 14.2624 7.93604 23.8043 7.93604 34.9867C7.94515 36.1909 8.03601 37.3931 8.20797 38.5849C14.3628 7.59618 49.427 17.6324 47.4332 36.5558Z" fill="black"/>
<path d="M33.3911 48.3426C33.3911 48.3426 60.9001 51.9337 59.1783 25.779C55.4343 15.7116 45.7674 8.52563 34.3968 8.52563C32.7867 8.53186 31.1806 8.68448 29.5981 8.98161C60.2507 12.7445 52.2838 48.6104 33.3911 48.3426Z" fill="black"/>
<path d="M42.0332 34.9892C42.0332 36.4553 41.5984 37.8884 40.7839 39.1073C39.9694 40.3262 38.8116 41.2762 37.4572 41.8371C36.1027 42.398 34.6123 42.5447 33.1745 42.2585C31.7367 41.9723 30.416 41.2662 29.3795 40.2294C28.343 39.1926 27.6373 37.8717 27.3516 36.4338C27.0659 34.9959 27.213 33.5055 27.7743 32.1512C28.3357 30.7969 29.2861 29.6395 30.5052 28.8254C31.7244 28.0112 33.1577 27.5769 34.6237 27.5774C36.5891 27.5779 38.4738 28.359 39.8633 29.7489C41.2528 31.1389 42.0333 33.0239 42.0332 34.9892V34.9892Z" fill="black"/>
</svg>